# xmcd
#
# Track frame offsets:
#	150
#	14923
#	32194
#	47493
#	58530
#	78185
#	92792
#	122888
#	137425
#	155363
#	181276
#	198994
#	218819
#	238499
#	253017
#	272300
#	295965
#	313197
#	326571
#	341196
#
# Disc length: 4755 seconds
#
# Revision: 1
# Processed by: cddbd v1.5.2PL0 Copyright (c) Steve Scherf et al.
# Submitted via: audiograbber 1.83.01
#
DISCID=2b129114
DTITLE=Various Artist - HITS OF THE 80'S [CD10)
DYEAR=2009
DGENRE=Pop
TTITLE0=ALVIN STARDUST - I Won't Run Away
TTITLE1=ODYSSEY - Going Back To My Roots
TTITLE2=TUBEWAY ARMY FEATURING GARY NUMAN - On Reflection
TTITLE3=GRAHAM FENTON LEADVOCALIST FROM MATCHBOX - Buzz Buzz A Diddle It
TTITLE4=SISTER SLEDGE - Lost In Music
TTITLE5=SELECTER - Missing Words
TTITLE6=MIQUEL BROWN - So Many Men So Little Time
TTITLE7=NOLANS - Who's Gonna Rock You
TTITLE8=BUCKS FIZZ - New Beginning (Mamba Seyra)
TTITLE9=BOYSTOWN GANG - Wanted For Murder
TTITLE10=JOCELYN BROWN - Somebody Else's Guy
TTITLE11=GO WEST - Faithful
TTITLE12=BIG COUNTRY - Wonderland
TTITLE13=SINITTA - Right Back Where We Started From
TTITLE14=HOWARD JONES - Everlasting Love
TTITLE15=HEAVEN 17 - Penthouse And Pavement
TTITLE16=KOOL and THE GANG - Emergency
TTITLE17=BEN E KING - Stand By Me
TTITLE18=E.L.O. II - Rock and Roll Is King
TTITLE19=FR DAVID - Words
EXTD=
EXTT0=
EXTT1=
EXTT2=
EXTT3=
EXTT4=
EXTT5=
EXTT6=
EXTT7=
EXTT8=
EXTT9=
EXTT10=
EXTT11=
EXTT12=
EXTT13=
EXTT14=
EXTT15=
EXTT16=
EXTT17=
EXTT18=
EXTT19=
PLAYORDER=
